Genre:Comedy | Romance
Language:English
IMDb:http://www.imdb.com/title/tt1447793/
Source:DVD

General
Complete name :My.Girlfriends.Boyfriend.2010.DvDRip.Ac3.Feel-Free
Format : AVI
Format/Info : Audio Video Interleave
File size : 812 MiB
Duration : 1h 20mn
Overall bit rate : 1 401 Kbps
Video #0
Muxing mode : Packed bitstream
Codec ID : XVID
Codec ID/Hint : XviD
Duration : 1h 20mn
Bit rate : 944 Kbps
Width : 720 pixels
Height : 384 pixels
Display aspect ratio : 1.875
Frame rate : 25.000 fps
Resolution : 24 bits
Colorimetry : 4:2:0
Scan type : Progressive
Bits/(Pixel*Frame) : 0.137
Stream size : 547 MiB (67%)
Audio #1
ID : 1
Format : AC-3
Format/Info : Audio Coding 3
Codec ID : 2000
Duration : 1h 20mn
Bit rate mode : Constant
Bit rate : 448 Kbps
Channel(s) : 6 channels
Channel positions : Front: L C R, Surround: L R, LFE
Sampling rate : 48.0 KHz
Stream size : 260 MiB (32%)
Alignment : Split accross interleaves
Interleave, duration : 40 ms (1.00 video frame)
Interleave, preload duration : 500 ms

Plot:
Jesse (Alyssa Milano, Charmed) is a sassy, intelligent woman who has yet to find "Mr. Right"until she bumps into Ethan (Christopher Gorham.


Screenshots:

 
http://www.postimg.com/image/23000/22974.jpg
 
http://www.postimg.com/image/23000/22975.jpg


ENJOY!